# xmcd
#
# Track frame offsets:
#	150
#	28127
#	60046
#	81047
#	100633
#	128040
#	163183
#	198664
#	222610
#	254143
#	274657
#	296221
#	328185
#
# Disc length: 4796 seconds
#
# Revision: 0
# Processed by: cddbd v1.5.2PL0 Copyright (c) Steve Scherf et al.
# Submitted via: audiograbber 1.83.01
#
DISCID=c912ba0d
DTITLE=Various Artist - Golden Blues vol.2
DYEAR=1900
DGENRE=Blues
TTITLE0=Big Daddy Kinsey - I Am The Blues
TTITLE1=Clarence "Gatemouth" Brown - Somebody Else
TTITLE2=Charles Brown - New Orleans Blues
TTITLE3=Lucky Peterson - 3 Handed Woman
TTITLE4=Robert Lockwood, Jr - I Got To Find Me A Woman
TTITLE5=Barbara Dennerlein - Bloody Mary
TTITLE6=Larry Garner - New Bad Habit
TTITLE7=Joe Louis Walker - Rainy Nights
TTITLE8=James Cotton - Hungry Country Girl
TTITLE9=Ronnie Earl and The Broadcasters - Everyday Kinda Man
TTITLE10=Pinetop Perkins - Lend Me Your Love
TTITLE11=Billy Branch - Same Thing
TTITLE12=Big Daddy Kinsey - It's Over
EXTD=
EXTT0=
EXTT1=
EXTT2=
EXTT3=
EXTT4=
EXTT5=
EXTT6=
EXTT7=
EXTT8=
EXTT9=
EXTT10=
EXTT11=
EXTT12=
PLAYORDER=
